<svg width="220" height="220" xmlns="http://www.w3.org/2000/svg">

 <g>
  <title>background</title>
  <rect fill="none" id="canvas_background" height="222" width="222" y="-1" x="-1"/>
 </g>
 <g>
  <title>Layer 1</title>
  <ellipse ry="100" rx="100" id="svg_20" cy="110" cx="110" stroke-width="10" stroke="white" fill="none"/>
  <g stroke="null" id="svg_1">
   <path stroke="#ffffff" fill="#ffffff" id="svg_2" d="m135.06806,59l-47.07537,0c-15.98656,0 -28.99269,13.00675 -28.99269,28.99331l0,47.07537c0,15.98718 13.00613,28.99331 28.99269,28.99331l47.07537,0c15.9878,0 28.99393,-13.00675 28.99393,-28.99331l0,-47.07537c0.00062,-15.98656 -13.00613,-28.99331 -28.99393,-28.99331zm19.67295,76.06868c0,10.84725 -8.82508,19.6717 -19.67232,19.6717l-47.07599,0c-10.84662,0.00062 -19.67108,-8.82446 -19.67108,-19.6717l0,-47.07537c0,-10.84662 8.82446,-19.6717 19.67108,-19.6717l47.07537,0c10.84725,0 19.67232,8.82508 19.67232,19.6717l0,47.07537l0.00062,0z"/>
   <path stroke="#ffffff" fill="#ffffff" id="svg_3" d="m111.531,84.46042c-14.92763,0 -27.07182,12.14419 -27.07182,27.07182c0,14.927 12.14419,27.07058 27.07182,27.07058s27.07182,-12.14357 27.07182,-27.07058c0,-14.92763 -12.14419,-27.07182 -27.07182,-27.07182zm0,44.82016c-9.78707,0 -17.75021,-7.9619 -17.75021,-17.74897c0,-9.78769 7.96252,-17.75021 17.75021,-17.75021s17.75021,7.96252 17.75021,17.75021c0,9.78707 -7.96314,17.74897 -17.75021,17.74897z"/>
   <path stroke="#ffffff" fill="#ffffff" id="svg_4" d="m139.73819,76.55632c-1.79596,0 -3.56023,0.72709 -4.82859,2.00104c-1.27457,1.26774 -2.00725,3.03263 -2.00725,4.83481c0,1.79658 0.7333,3.56085 2.00725,4.83481c1.26774,1.26774 3.03263,2.00104 4.82859,2.00104c1.80218,0 3.56085,-0.7333 4.83481,-2.00104c1.27395,-1.27395 2.00104,-3.03884 2.00104,-4.83481c0,-1.80218 -0.72709,-3.56707 -2.00104,-4.83481c-1.26774,-1.27395 -3.03263,-2.00104 -4.83481,-2.00104z"/>
  </g>
 </g>
</svg>