<svg width="220" height="220" xmlns="http://www.w3.org/2000/svg">

 <g>
  <title>background</title>
  <rect fill="none" id="canvas_background" height="222" width="222" y="-1" x="-1"/>
 </g>
 <g>
  <title>Layer 1</title>
  <ellipse ry="100" rx="100" id="svg_2" cy="110" cx="110" fill="none" stroke-width="10" stroke="white"/>
  <ellipse ry="13" id="svg_3" cy="141.5" cx="158.5" fill-opacity="null" stroke-opacity="null" stroke-width="null" stroke="null" fill="null"/>
  <path stroke="#ffffff" fill="#ffffff" transform="rotate(-0.20577774941921234 112.00001525879026,111.52583312988281) " id="svg_1" d="m158.5401,78.68068c-5.85515,0.31749 -5.72732,0.29159 -6.38918,0.35676l3.46764,-11.65115s-10.82404,4.68469 -13.56804,5.52271c-7.20655,-7.62067 -17.91839,-7.95738 -25.57659,-2.41963c-6.27129,4.53597 -9.63738,12.32541 -8.51464,21.42994c-12.20527,-1.99269 -22.48888,-8.79957 -30.60797,-20.27443l-2.56789,-3.62861l-1.91881,4.14579c-2.42515,5.23863 -3.23045,11.22839 -2.2682,16.86556c0.39484,2.31269 1.06593,4.51843 1.99551,6.5838l-2.20287,-1.00428l-0.26133,4.33044c-0.26488,4.39895 0.98,9.53398 3.33058,13.73491c0.66186,1.18308 1.51403,2.48229 2.59416,3.76396l-1.13836,-0.20554l1.38904,4.96208c1.82578,6.51947 5.61796,11.56343 10.53927,14.36739c-4.91492,2.45389 -8.88534,4.01963 -15.41157,6.54537l-5.9709,2.30934l5.51499,3.54757c2.10274,1.35269 9.53299,5.87028 16.87447,7.22547c16.31914,3.01117 34.69273,0.55895 47.06204,-12.54766c10.41854,-11.03956 13.83718,-26.74293 13.12704,-43.08463c-0.10723,-2.47394 0.46869,-4.83508 1.62197,-6.6473c2.3101,-3.62861 8.86545,-14.20363 8.87966,-14.22786zm-13.24066,10.38453c-1.91526,3.00866 -2.87467,6.85116 -2.70281,10.81815c0.71654,16.48373 -3.09552,29.267 -11.33108,37.99305c-9.62034,10.19403 -25.13772,14.19528 -42.57179,10.97774c-3.15731,-0.58235 -6.42042,-1.88658 -9.12111,-3.18913c5.47167,-2.21493 9.69703,-4.18924 16.52082,-7.98912l9.52589,-5.30464l-10.51725,-0.79206c-5.03777,-0.37932 -9.2326,-3.2518 -11.81114,-7.9156c1.36916,-0.09358 2.68932,-0.35426 4.0038,-0.78538l10.0308,-3.28689l-10.1146,-2.91425c-4.91492,-1.41619 -7.71644,-4.87602 -9.20135,-7.5296c-0.97503,-1.7437 -1.61203,-3.53002 -1.99409,-5.17681c1.01409,0.32 2.19648,0.54809 4.10322,0.77034l9.36185,1.0895l-7.41747,-6.80772c-5.34455,-4.90443 -7.48635,-12.27277 -5.91622,-19.35621c16.67989,20.35464 36.26428,18.82483 38.23564,19.36289c-0.4339,-4.95874 -0.44526,-4.97044 -0.55888,-5.4425c-2.52457,-10.49983 3.00817,-15.8312 5.50363,-17.6359c5.21247,-3.76898 13.48637,-4.33712 19.21724,1.87237c1.23778,1.34016 2.91159,1.86736 4.47818,1.4095c1.40609,-0.41107 2.56007,-0.84637 3.68992,-1.3201l-2.352,7.90223l3.00249,0.00251c-0.5667,0.89399 -1.24631,1.96428 -2.06368,3.24762zm0,0"/>
 </g>
</svg>